<?xml version="1.0" standalone="no"?><!DOCTYPE svg PUBLIC "-//W3C//DTD SVG 1.1//EN" "http://www.w3.org/Graphics/SVG/1.1/DTD/svg11.dtd"><svg t="1551508982633" class="icon" style="" viewBox="0 0 1024 1024" version="1.1" xmlns="http://www.w3.org/2000/svg" p-id="4033" xmlns:xlink="http://www.w3.org/1999/xlink" width="48" height="48"><defs><style type="text/css"></style></defs><path d="M853.218382 365.155561c-149.387355-4.465708-202.112184-6.520507-202.112184-2.050706h-42.586934l-23.322172 2.050706 17.575284-44.673456c0-8.93244 4.393054-17.866926 4.393054-26.804482 39.543621-174.228113-96.66355-236.768495-140.602272-227.834009s-70.302159 31.271214-96.66355 93.813642c-16.266475 37.211507-63.509453 176.2297-94.841042 267.564895h-7.14984v20.814048l-0.082888 0.241501v-21.292956H97.480148l0.002047 532.331048h685.436074c52.726875 0 96.66355-44.673455 96.663551-98.281397l48.333821-397.597437c0-53.605895-21.970384-98.281397-74.697259-98.281397zM140.067083 916.730904V469.573725h127.759778l0.082888-0.01228V916.731928H140.067083z m691.182961-60.164264v4.467755c0 31.273261-21.627577 55.69651-52.384067 55.696509H310.516126V455.860399l6.658653-23.692609c43.938722-120.618125 79.087243-218.901569 87.875397-254.640537 21.970384-49.140187 35.150568-62.542428 65.909106-67.010184 43.936675-8.934486 114.238834 67.010183 87.875396 174.226067-4.3951 26.806529-13.18223 49.143257-17.575284 71.476915l-17.911952 49.470715h319.399448c21.970384 0 36.83493 17.541515 36.83493 57.745168l-48.331776 393.130706z" fill="#586a9c" p-id="4034"></path></svg>